<?xml version="1.0" standalone="no"?>
<!DOCTYPE svg PUBLIC "-//W3C//DTD SVG 20010904//EN"
 "http://www.w3.org/TR/2001/REC-SVG-20010904/DTD/svg10.dtd">
<svg version="1.0" xmlns="http://www.w3.org/2000/svg"
 width="500.000000pt" height="500.000000pt" viewBox="0 0 500.000000 500.000000"
 preserveAspectRatio="xMidYMid meet">
<metadata>
Created by potrace 1.14, written by Peter Selinger 2001-2017
</metadata>
<g transform="translate(0.000000,500.000000) scale(0.100000,-0.100000)"
fill="#000000" stroke="none">
<path d="M2295 3759 c-168 -25 -410 -126 -550 -231 -97 -73 -221 -199 -284
-288 -101 -143 -185 -338 -215 -500 -21 -108 -21 -349 -1 -466 44 -252 170
-490 356 -675 194 -193 449 -323 703 -358 113 -16 309 -13 417 5 184 32 388
120 539 233 92 69 241 226 301 318 99 151 164 317 195 497 26 144 15 366 -25
521 -37 146 -122 325 -209 440 -70 94 -213 234 -297 291 -155 106 -342 182
-509 209 -99 16 -323 18 -421 4z m380 -19 c256 -37 493 -154 689 -340 242
-232 369 -519 383 -865 13 -332 -104 -643 -337 -888 -241 -255 -567 -397 -910
-397 -423 0 -808 206 -1048 562 -48 71 -120 224 -147 313 -75 247 -74 525 2
760 110 339 357 611 693 764 74 33 228 77 316 90 83 12 276 12 359 1z"/>
<path d="M2177 3133 c-4 -3 -7 -303 -7 -665 l0 -658 135 0 135 0 0 300 0 300
60 0 60 0 0 -300 0 -300 135 0 135 0 0 665 0 665 -135 0 -135 0 0 -240 0 -240
-60 0 -60 0 0 240 0 240 -128 0 c-71 0 -132 -3 -135 -7z"/>
</g>
</svg>
